<?xml version="1.0" encoding="utf-8"?>
<!-- Generator: Adobe Illustrator 23.0.2, SVG Export Plug-In . SVG Version: 6.00 Build 0)  -->
<svg version="1.1" id="Layer_1" xmlns="http://www.w3.org/2000/svg" xmlns:xlink="http://www.w3.org/1999/xlink" x="0px" y="0px"
	 viewBox="0 0 241 54" style="enable-background:new 0 0 241 54;" xml:space="preserve">
<style type="text/css">
	.st0{fill-rule:evenodd;clip-rule:evenodd;fill:#FFFFFF;}
</style>
<path id="Logo" class="st0" d="M22.9,48.4l28.6-0.3L31,13L14.2,42.9H9.7L29,9.4l-3.2-5.5L0,48.6l17.4-0.2L31,24.1l10.8,18.5
	l-16.6,0.1L22.9,48.4z M67.7,54L36.4,0.2L36.7,0L68,53.8L67.7,54z M70.5,20.8L70.5,20.8c0-5.3,4.3-9.5,9.6-9.5
	c5.2,0,9.4,4.2,9.5,9.4v0.1c0,5.3-4.3,9.5-9.6,9.5C74.8,30.2,70.5,26,70.5,20.8z M84.5,20.8L84.5,20.8c0.1-2.6-1.8-4.8-4.4-5H80
	c-2.5,0.1-4.5,2.2-4.5,4.7c0,0.1,0,0.1,0,0.2v0.1c-0.1,2.6,1.8,4.8,4.4,4.9H80c2.5,0,4.5-2.1,4.5-4.7C84.5,20.9,84.5,20.9,84.5,20.8
	z M94.6,11.7h4.6l7.3,9.6v-9.6h4.9v18.2H107l-7.6-10v10h-4.9L94.6,11.7L94.6,11.7z M121.3,16.1H116v-4.4h15.5v4.4h-5.3v13.8h-4.9
	L121.3,16.1L121.3,16.1z M136.3,11.7h4.9v18.2h-4.9C136.3,29.9,136.3,11.7,136.3,11.7z M146.4,20.8L146.4,20.8
	c-0.1-5.1,3.9-9.4,9-9.5c0.1,0,0.2,0,0.4,0c3-0.1,5.8,1.3,7.5,3.8l-3.7,2.9c-0.9-1.3-2.3-2.1-3.9-2.1c-2.5,0-4.2,2.2-4.2,4.8v0.1
	c0,2.7,1.7,4.9,4.2,4.9c1.6,0,3.1-0.8,4-2.2l3.7,2.7c-1.7,2.7-4.7,4.2-7.8,4.1c-5,0-9.1-4.1-9.1-9.1C146.4,21,146.4,20.9,146.4,20.8
	z M168,11.7h14.2V16h-9.4v2.8h8.5v4h-8.5v2.9h9.5V30H168C168,29.9,168,11.7,168,11.7z M187.4,11.7h4.9v13.8h8.6v4.4h-13.5V11.7
	L187.4,11.7z M205.5,11.7h4.9v13.8h8.6v4.4h-13.5V11.7L205.5,11.7z M221.9,20.8L221.9,20.8c0.1-5.3,4.4-9.5,9.6-9.5
	c5.2,0.1,9.3,4.2,9.4,9.4v0.1c0,5.3-4.3,9.5-9.6,9.5C226.2,30.2,222,26,221.9,20.8L221.9,20.8z M236,20.8L236,20.8
	c0.1-2.6-1.8-4.8-4.4-5h-0.1c-2.5,0.1-4.5,2.2-4.5,4.7c0,0.1,0,0.1,0,0.2v0.1c-0.1,2.6,1.8,4.8,4.4,4.9h0.1c2.5,0,4.6-2.1,4.5-4.7
	C236,20.9,236,20.9,236,20.8L236,20.8z M51.4,25.5v-6l4.5,7.1H56l4.5-7.1v10.4h4.9V11.7h-5.2l-4.2,7l-4.2-7h-5.2v5.6L51.4,25.5z
	 M71.5,39.7h0.7v6.1h-0.7V39.7z M77.4,39.7H78l3.8,4.9v-4.9h0.7v6.1H82l-3.9-5v5h-0.7V39.7L77.4,39.7z M89.2,40.3h-2v-0.6h4.7v0.6
	h-2v5.4h-0.7V40.3L89.2,40.3z M96.6,39.7h4.3v0.6h-3.7v2.1h3.3V43h-3.3v2.1h3.7v0.6h-4.4L96.6,39.7L96.6,39.7z M105.8,39.7h2.6
	c0.6,0,1.2,0.2,1.7,0.6c0.3,0.3,0.5,0.8,0.5,1.2l0,0c0,0.9-0.7,1.7-1.6,1.8l1.8,2.5H110l-1.7-2.4h-1.7v2.4h-0.7v-6.1H105.8z
	 M108.3,42.8c0.7,0.1,1.4-0.4,1.5-1.1v-0.1l0,0c0-0.7-0.6-1.3-1.3-1.2c-0.1,0-0.1,0-0.2,0h-1.9v2.5L108.3,42.8L108.3,42.8z
	 M115.4,39.7h0.6l3.8,4.9v-4.9h0.7v6.1H120l-3.9-5v5h-0.7V39.7z M127.9,39.7h0.6l2.7,6.1h-0.7l-0.7-1.6h-3.3l-0.7,1.6h-0.7
	L127.9,39.7z M129.6,43.6l-1.4-3.1l-1.4,3.1H129.6L129.6,43.6z M136.7,40.3h-2v-0.6h4.7v0.6h-2v5.4h-0.7V40.3L136.7,40.3z
	 M144.2,39.7h0.7v6.1h-0.7V39.7z M149.8,42.8L149.8,42.8c0-1.7,1.3-3.1,3-3.2s3.1,1.3,3.2,3c0,0.1,0,0.1,0,0.2l0,0
	c0,1.7-1.3,3.1-3,3.1S149.9,44.6,149.8,42.8C149.8,42.9,149.8,42.8,149.8,42.8L149.8,42.8z M155.2,42.8L155.2,42.8
	c0.1-1.3-1-2.5-2.3-2.5c0,0,0,0-0.1,0c-1.3,0-2.4,1.1-2.4,2.4v0.1l0,0c-0.1,1.3,1,2.4,2.3,2.5c0,0,0,0,0.1,0
	C154.2,45.2,155.2,44.2,155.2,42.8L155.2,42.8L155.2,42.8z M160.8,39.7h0.6l3.8,4.9v-4.9h0.7v6.1h-0.5l-3.9-5v5h-0.7L160.8,39.7
	L160.8,39.7z M173.2,39.7h0.6l2.7,6.1h-0.7l-0.7-1.6h-3.3l-0.7,1.6h-0.7L173.2,39.7z M174.9,43.6l-1.4-3.1l-1.4,3.1H174.9
	L174.9,43.6z M181.2,39.7h0.7v5.4h3.4v0.6h-4.1L181.2,39.7L181.2,39.7z M195.7,42.8L195.7,42.8c-0.1-1.7,1.3-3.1,2.9-3.2h0.1
	c0.8,0,1.6,0.3,2.2,0.8l-0.4,0.5c-0.5-0.5-1.2-0.7-1.8-0.7c-1.3,0-2.3,1.1-2.3,2.4c0,0,0,0,0,0.1l0,0c-0.1,1.3,0.9,2.4,2.1,2.5
	c0.1,0,0.2,0,0.2,0c0.6,0,1.2-0.2,1.7-0.6v-1.5h-1.8v-0.6h2.5v2.4c-0.7,0.6-1.5,0.9-2.4,0.9c-1.6,0.1-3-1.2-3.1-2.9
	C195.7,42.9,195.7,42.8,195.7,42.8L195.7,42.8z M206.2,39.7h2.6c0.6,0,1.2,0.2,1.7,0.6c0.3,0.3,0.5,0.8,0.5,1.2l0,0
	c0,0.9-0.7,1.7-1.6,1.8l1.8,2.5h-0.8l-1.7-2.4H207v2.4h-0.7L206.2,39.7L206.2,39.7z M208.7,42.8c0.7,0.1,1.4-0.4,1.5-1.1v-0.1l0,0
	c0-0.7-0.6-1.3-1.3-1.2c-0.1,0-0.1,0-0.2,0h-1.9v2.5L208.7,42.8L208.7,42.8z M215.5,42.8L215.5,42.8c0-1.7,1.3-3.1,3-3.1
	s3.1,1.3,3.1,3v0.1l0,0c0,1.7-1.3,3.1-3,3.1S215.5,44.6,215.5,42.8C215.5,42.9,215.5,42.8,215.5,42.8L215.5,42.8z M221,42.8
	L221,42.8c0.1-1.3-1-2.5-2.3-2.5c0,0,0,0-0.1,0c-1.3,0-2.4,1.1-2.4,2.4v0.1l0,0c-0.1,1.3,1,2.4,2.3,2.5c0,0,0,0,0.1,0
	C219.9,45.2,221,44.2,221,42.8L221,42.8L221,42.8z M226.5,43.2v-3.5h0.7v3.5c-0.1,1,0.5,1.9,1.5,2c0.1,0,0.2,0,0.3,0
	c1,0.1,1.8-0.7,1.8-1.6c0-0.1,0-0.2,0-0.4v-3.5h0.7v3.5c0.1,1.4-0.9,2.6-2.3,2.7s-2.6-0.9-2.7-2.3C226.4,43.4,226.4,43.3,226.5,43.2
	L226.5,43.2z M236.5,39.7h2.3c1.1-0.2,2.1,0.6,2.2,1.7c0,0.1,0,0.2,0,0.3l0,0c0,1.1-1,2-2.2,2c-0.1,0-0.1,0-0.2,0h-1.5v2.1h-0.7
	L236.5,39.7L236.5,39.7z M238.7,43c0.8,0.1,1.5-0.4,1.6-1.2v-0.1l0,0c0-0.8-0.6-1.4-1.4-1.3c-0.1,0-0.2,0-0.2,0h-1.5V43H238.7
	L238.7,43z"/>
</svg>
